<?xml version="1.0" encoding="utf-8"?>
<!-- Generator: Adobe Illustrator 24.1.3, SVG Export Plug-In . SVG Version: 6.00 Build 0)  -->
<svg version="1.1" id="Layer_1" xmlns="http://www.w3.org/2000/svg" xmlns:xlink="http://www.w3.org/1999/xlink" x="0px" y="0px"
	 viewBox="0 0 100 100" style="enable-background:new 0 0 100 100;" xml:space="preserve">
<g>
	<g>
		<path d="M14.2,62.2c4.7,0.3,11.6-0.1,18.9-0.8c-2.1,8.5-4.9,20.3-5.9,25.8c-1.6,8.7,10.8,11.8,13.5,5s10.8-29.9,26-34.1
			c0.7-0.2,1.5-0.6,1.5-0.6L68.3,11c0,0-29.7-6.2-47-6.2c-8.7,0-14.6,1.5-15.5,9.8C4.6,25.7,3.2,39.7,2.6,47.9
			C1.8,58.3,5,61.6,14.2,62.2z"/>
	</g>
	<g>
		<path d="M79.7,61h12.7c2.8,0,5-2.2,5-5V12.3c0-2.8-2.2-5-5-5H79.7c-2.8,0-5,2.2-5,5V56C74.7,58.8,77,61,79.7,61z"/>
	</g>
</g>
</svg>
