<?xml version="1.0" encoding="utf-8"?>
<!-- Generator: Adobe Illustrator 24.1.3, SVG Export Plug-In . SVG Version: 6.00 Build 0)  -->
<svg version="1.1" id="Layer_1" xmlns="http://www.w3.org/2000/svg" xmlns:xlink="http://www.w3.org/1999/xlink" x="0px" y="0px"
	 viewBox="0 0 100 100" style="enable-background:new 0 0 100 100;" xml:space="preserve">
<path fill="#878787" d="M50,72.8L29.3,87.1c-1.3,1-3.2,0.7-4.2-0.7c-0.6-0.8-0.7-1.8-0.4-2.7l7.2-24.1l-20-15.3c-1.3-1-1.6-2.8-0.7-4.2
	c0.6-0.8,1.5-1.2,2.4-1.2l25.2-0.7l0,0C39.2,37,48.7,50,50,50 M61.2,38.2C62.5,38.1,60.8,36.9,61.2,38.2L61.2,38.2 M50,6.8L50,6.8
	c-3.7,0-6.9,2.3-8.2,5.8l-7.1,20.1l-21.3,0.5c-4.8,0.1-8.5,4.1-8.4,8.9c0.1,2.6,1.3,5,3.4,6.6l16.9,13l-6.1,20.4
	c-1.4,4.6,1.3,9.4,5.8,10.7c2.5,0.7,5.2,0.3,7.4-1.2L50,79.6l17.6,12.1c3.9,2.7,9.3,1.7,12-2.2c1.5-2.2,1.9-4.9,1.2-7.4l-6.1-20.4
	l16.9-13c3.8-2.9,4.5-8.3,1.6-12.1c-1.6-2.1-4-3.3-6.6-3.4l-21.3-0.5l-7.1-20.1C56.9,9.1,53.7,6.8,50,6.8z"/>
</svg>
