<?xml version="1.0" encoding="utf-8"?>
<!-- Generator: Adobe Illustrator 24.1.3, SVG Export Plug-In . SVG Version: 6.00 Build 0)  -->
<svg version="1.1" id="Layer_1" xmlns="http://www.w3.org/2000/svg" xmlns:xlink="http://www.w3.org/1999/xlink" x="0px" y="0px"
	 viewBox="0 0 100 100" style="enable-background:new 0 0 100 100;" xml:space="preserve">
<g>
	<path d="M50,40c-5.5,0-10,4.5-10,10s4.5,10,10,10s10-4.5,10-10S55.5,40,50,40z"/>
	<path d="M50,66.4c-9.1,0-16.4-7.4-16.4-16.4S40.9,33.6,50,33.6S66.4,40.9,66.4,50S59.1,66.4,50,66.4z"/>
	<path d="M50,7.5C26.6,7.5,7.5,26.6,7.5,50S26.6,92.5,50,92.5S92.5,73.4,92.5,50S73.4,7.5,50,7.5z M50,81.1
		c-17.1,0-31.1-13.9-31.1-31.1S32.9,18.9,50,18.9S81.1,32.9,81.1,50S67.1,81.1,50,81.1z"/>
</g>
</svg>
