<?xml version="1.0" encoding="utf-8"?>
<!-- Generator: Adobe Illustrator 24.1.3, SVG Export Plug-In . SVG Version: 6.00 Build 0)  -->
<svg version="1.1" id="Layer_1" xmlns:sketch="http://www.bohemiancoding.com/sketch/ns"
	 xmlns="http://www.w3.org/2000/svg" xmlns:xlink="http://www.w3.org/1999/xlink" x="0px" y="0px" viewBox="0 0 100 100"
	 style="enable-background:new 0 0 100 100;" xml:space="preserve">
	<g>
		<path d="M40.7,60.8L29.4,49.6c-2.5-2.5-6.6-2.5-9.2,0l-4.6,4.6c-2.5,2.5-2.5,6.6,0,9.2
			l24.5,24.5c0.2,0.2,0.4,0.5,0.6,0.7l4.6,4.6c1.2,1.2,2.8,1.9,4.4,1.9c1.7,0.1,3.5-0.6,4.8-1.9l4.6-4.6c0.2-0.2,0.4-0.5,0.6-0.7
			l24.5-24.5c2.5-2.5,2.5-6.6,0-9.2l-4.6-4.6c-2.5-2.5-6.6-2.5-9.2,0L60.1,60.1V11.5c0-3.6-2.9-6.5-6.5-6.5h-6.5
			c-3.6,0-6.5,2.9-6.5,6.5V60.8L40.7,60.8z"/>
	</g>
</svg>
