<?xml version="1.0" encoding="utf-8"?>
<!-- Generator: Adobe Illustrator 24.1.3, SVG Export Plug-In . SVG Version: 6.00 Build 0)  -->
<svg version="1.1" id="Layer_1" xmlns="http://www.w3.org/2000/svg" xmlns:xlink="http://www.w3.org/1999/xlink" x="0px" y="0px"
	 viewBox="0 0 100 100" style="enable-background:new 0 0 100 100;" xml:space="preserve">
<g>
	<path d="M66.5,6.5c2-2,5.1-2,7.1,0l0,0l20,20c2,2,2,5.1,0,7.1l0,0l-55,55c-0.7,0.7-1.6,1.2-2.6,1.4l0,0l-25,5
		c-3.5,0.7-6.6-2.4-5.9-5.9l0,0l5-25c0.2-1,0.7-1.9,1.4-2.6l0,0L66.5,6.5z M47.5,39.6L19.6,67.5l-3.2,16.2l16.2-3.2l27.9-27.9
		L47.5,39.6z M57.5,29.6l-2.9,2.9l12.9,12.9l2.9-2.9L57.5,29.6z M70,17.1l-5.4,5.4l12.9,12.9l5.4-5.4L70,17.1z"/>
</g>
</svg>
