<?xml version="1.0" encoding="utf-8"?>
<!-- Generator: Adobe Illustrator 24.1.3, SVG Export Plug-In . SVG Version: 6.00 Build 0)  -->
<svg version="1.1" xmlns="http://www.w3.org/2000/svg" xmlns:xlink="http://www.w3.org/1999/xlink" x="0px" y="0px"
	 viewBox="0 0 256 256" style="enable-background:new 0 0 256 256;" xml:space="preserve">

<g id="Layer_3_xA0_Image_1_">
	<path d="M29.7,196.8c12.8-36.3,55.2-47.4,88.8-34.7c1.1-52.3,0.6-104.9,0.2-157.3c7.3,0,14.7,0,22,0c-6.2,28.1,49,53.3,64.2,76.1
		c35.9,41.7,30.4,78.1-15.1,108.5c-16.7-14-6.3-9.3-3.4-35c4-21.9-15.1-42.3-35.1-39.3c-4,0.1-5,2.4-5,6.2
		c-0.6,29.5,1.8,59.3-1.2,88.7C133.9,271.6,21.3,262.8,29.7,196.8z"/>
</g>
<g id="Layer_1_xA0_Image_1_">
	<g>
		<path d="M26,215c1.1,2.4,2.3,4.8,3.4,7.2c8.2,16.6,22.4,24.8,39.8,28.5c1,0.2,1.8,0.8,2.8,1.3c-15.3,0-30.7,0-46,0
			C26,239.7,26,227.3,26,215z"/>
	</g>
</g>
</svg>
