<?xml version="1.0" encoding="utf-8"?>
<!-- Generator: Adobe Illustrator 24.1.3, SVG Export Plug-In . SVG Version: 6.00 Build 0)  -->
<svg version="1.1"
	 id="Layer_1" xmlns:cc="http://creativecommons.org/ns#" xmlns:dc="http://purl.org/dc/elements/1.1/" xmlns:inkscape="http://www.inkscape.org/namespaces/inkscape" xmlns:rdf="http://www.w3.org/1999/02/22-rdf-syntax-ns#" xmlns:sodipodi="http://sodipodi.sourceforge.net/DTD/sodipodi-0.dtd" xmlns:svg="http://www.w3.org/2000/svg"
	 xmlns="http://www.w3.org/2000/svg" xmlns:xlink="http://www.w3.org/1999/xlink" x="0px" y="0px" viewBox="0 0 100 100"
	 style="enable-background:new 0 0 100 100;" xml:space="preserve">
<g transform="translate(0,-952.36218)">
	<path fill="#17D400" d="M50,957.4c-24.8,0-45,20.2-45,45c0,24.8,20.2,45,45,45s45-20.2,45-45C95,977.5,74.8,957.4,50,957.4z M50,961.8
		c22.5,0,40.6,18.2,40.6,40.6c0,22.5-18.2,40.6-40.6,40.6s-40.6-18.2-40.6-40.6C9.4,979.9,27.5,961.8,50,961.8z M38.3,981.5
		c-2.5,0.1-4.7,2.1-4.8,5v31.7c0.1,3.9,4,6.2,7.4,4.4l27.4-15.9c1.5-0.9,2.5-2.5,2.5-4.3s-1-3.5-2.5-4.3l-27.4-15.9
		C40.1,981.7,39.2,981.5,38.3,981.5L38.3,981.5z"/>
</g>
</svg>
