<?xml version="1.0" encoding="utf-8"?>
<!-- Generator: Adobe Illustrator 24.1.3, SVG Export Plug-In . SVG Version: 6.00 Build 0)  -->
<svg version="1.1" id="Layer_1" xmlns="http://www.w3.org/2000/svg" xmlns:xlink="http://www.w3.org/1999/xlink" x="0px" y="0px"
	 viewBox="0 0 100 100" style="enable-background:new 0 0 100 100;" xml:space="preserve">
<g>
	<g>
		<path fill="none" stroke-width="4" d="M15.4,61.5c4.4,0.3,10.9-0.1,17.8-0.8c-2,8-4.6,19.1-5.6,24.3c-1.5,8.2,10.2,11.1,12.7,4.7
			c2.5-6.4,10.2-28.2,24.5-32.1c0.7-0.2,1.4-0.6,1.4-0.6l0.1-43.8c0,0-28-5.8-44.3-5.8c-8.2,0-13.8,1.4-14.6,9.2
			C6.4,27.1,5.1,40.3,4.5,48C3.7,57.8,6.8,60.9,15.4,61.5z"/>
	</g>
	<g>
		<path fill="none" stroke-width="4" d="M79.5,57.8h11.2c2.5,0,4.4-1.9,4.4-4.4V14.9c0-2.5-1.9-4.4-4.4-4.4H79.5c-2.5,0-4.4,1.9-4.4,4.4v38.5
			C75,55.9,77.1,57.8,79.5,57.8z"/>
	</g>
</g>
</svg>
