<?xml version="1.0" encoding="utf-8"?>
<!-- Generator: Adobe Illustrator 24.1.3, SVG Export Plug-In . SVG Version: 6.00 Build 0)  -->
<svg version="1.1" id="Layer_1" xmlns="http://www.w3.org/2000/svg" xmlns:xlink="http://www.w3.org/1999/xlink" x="0px" y="0px"
	 viewBox="0 0 64 64" style="enable-background:new 0 0 64 64;" xml:space="preserve">
<path d="M6.2,61.4L25,42.6l6.7,6.7c1.9,1.9,5,1.9,6.9,0c0,0,0,0,0,0l1.1-1.1c1.4-1.4,2.1-3.2,2.1-5.2v-2.8c0-0.6,0.2-1.2,0.7-1.6
	l6.9-6.9c0.5-0.5,1.2-0.7,1.9-0.4c2.5,0.8,5.2,0.2,7-1.6l2.3-2.3c1.9-1.9,1.9-5,0-6.9c0,0,0,0,0,0l0,0l-17-17c-1.9-1.9-5-1.9-6.9,0
	c0,0,0,0,0,0l-2.3,2.4c-1.8,1.8-2.5,4.5-1.7,7c0.2,0.7,0,1.4-0.5,1.9l-6.9,6.9c-0.4,0.4-1,0.7-1.6,0.7H21c-1.9,0-3.8,0.8-5.2,2.1
	l-1.1,1.1c-1.9,1.9-1.9,5,0,6.9c0,0,0,0,0,0l6.7,6.7L2.6,57.8L6.2,61.4z M19.4,27.8c0.4-0.4,1-0.7,1.6-0.7h2.8
	c1.9,0,3.8-0.7,5.2-2.1l6.9-6.9c1.8-1.8,2.5-4.5,1.7-7c-0.2-0.7,0-1.4,0.5-1.9l2.3-2.3l16.8,16.8L54.8,26c-0.5,0.5-1.2,0.7-1.9,0.5
	c-2.5-0.8-5.2-0.2-7,1.6L39,35c-1.4,1.4-2.1,3.2-2.1,5.2V43c0,0.6-0.2,1.2-0.7,1.6l-1.1,1.1L18.3,28.9L19.4,27.8z"/>
</svg>
