<?xml version="1.0" encoding="utf-8"?>
<!-- Generator: Adobe Illustrator 24.1.3, SVG Export Plug-In . SVG Version: 6.00 Build 0)  -->
<svg version="1.1" xmlns="http://www.w3.org/2000/svg" xmlns:xlink="http://www.w3.org/1999/xlink" x="0px" y="0px"
	 viewBox="0 0 100 100" style="enable-background:new 0 0 100 100;" xml:space="preserve">
<g id="Layer_2">
</g>
<g id="Layer_1">
	<g>
		<path d="M67.6,40.2c1.3-1.3,1.3-3.4,0-4.7L64,31.9c-1.3-1.3-3.4-1.3-4.7,0l-6.9,6.9c-1.3,1.3-3.4,1.3-4.7,0l-6.9-6.9
			c-1.3-1.3-3.4-1.3-4.7,0l-3.7,3.6c-1.3,1.3-1.3,3.4,0,4.7l6.9,6.9c1.3,1.3,1.3,3.4,0,4.7l-6.9,6.9c-1.3,1.3-1.3,3.4,0,4.7l3.5,3.5
			c1.3,1.3,3.4,1.3,4.7,0l6.9-6.9c1.3-1.3,3.4-1.3,4.7,0l6.9,6.9c1.3,1.3,3.4,1.3,4.7,0l3.5-3.5c1.3-1.3,1.3-3.4,0-4.7l-6.9-6.9
			c-1.3-1.3-1.3-3.4,0-4.7L67.6,40.2z"/>
		<path d="M50,2C23.8,2,2.5,23.3,2.5,49.5S23.8,97,50,97s47.5-21.3,47.5-47.5S76.2,2,50,2z M50,85.3c-19.8,0-35.8-16-35.8-35.8
			s16-35.8,35.8-35.8s35.8,16,35.8,35.8S69.8,85.3,50,85.3z"/>
	</g>
</g>
</svg>
