<?xml version="1.0" encoding="utf-8"?>
<!-- Generator: Adobe Illustrator 24.1.3, SVG Export Plug-In . SVG Version: 6.00 Build 0)  -->
<svg version="1.1" id="Layer_1" xmlns="http://www.w3.org/2000/svg" xmlns:xlink="http://www.w3.org/1999/xlink" x="0px" y="0px"
	 viewBox="0 0 100 100" style="enable-background:new 0 0 100 100;" xml:space="preserve">
<g>
	<path d="M5,55.1V43c0-3.1,2.5-5.6,5.7-5.6h27.5V9.9c0-3.2,2.5-5.7,5.6-5.7H56c3.2,0,5.7,2.5,5.7,5.7v27.5h27.5
		c3.1,0,5.7,2.5,5.7,5.6v12.2c0,3.2-2.6,5.7-5.7,5.7H61.8v27.5c0,3.1-2.5,5.7-5.7,5.7H43.9c-3.1,0-5.6-2.6-5.6-5.7V60.9H10.7
		C7.5,60.9,5,58.4,5,55.1z"/>
</g>
</svg>
