<?xml version="1.0" encoding="utf-8"?>
<!-- Generator: Adobe Illustrator 24.1.3, SVG Export Plug-In . SVG Version: 6.00 Build 0)  -->
<svg version="1.1" id="Layer_1" xmlns="http://www.w3.org/2000/svg" xmlns:xlink="http://www.w3.org/1999/xlink" x="0px" y="0px"
	 viewBox="0 0 40 40" style="enable-background:new 0 0 40 40;" xml:space="preserve">
<path d="M10,4C7.2,4,5,6.2,5,9v22c0,2.8,2.2,5,5,5h2c2.8,0,5-2.2,5-5V9c0-2.8-2.2-5-5-5H10z"/>
<path d="M28,4c-2.8,0-5,2.2-5,5v22c0,2.8,2.2,5,5,5h2c2.8,0,5-2.2,5-5V9c0-2.8-2.2-5-5-5H28z"/>
</svg>
