<?xml version="1.0" encoding="utf-8"?>
<!-- Generator: Adobe Illustrator 24.1.3, SVG Export Plug-In . SVG Version: 6.00 Build 0)  -->
<svg version="1.1" id="Layer_1" xmlns="http://www.w3.org/2000/svg" xmlns:xlink="http://www.w3.org/1999/xlink" x="0px" y="0px"
	 viewBox="0 0 100 100" style="enable-background:new 0 0 100 100;" xml:space="preserve">
<path d="M52.1,96.9c-24.6,0-43.9-20.3-43.9-46.1c0-1.1,0.9-2,2-2h11.8c1.1,0,2,0.9,2,2c0,22.9,14.5,31.1,28,31.1
	c14.1,0,26.5-12.9,26.5-27.6c0-13.8-13-25.5-28.4-25.5H35.8v8.1c0,0.7-0.4,1.4-1,1.7c-0.6,0.4-1.4,0.3-2,0L6.5,22.5
	c-0.6-0.4-1-1-1-1.7c0-0.7,0.4-1.3,1-1.7L32.7,3.4c0.6-0.4,1.4-0.4,2,0c0.6,0.4,1,1,1,1.7v7.7h14.5c24,0,44.2,19.3,44.2,42.2
	C94.5,78.1,75.5,96.9,52.1,96.9z"/>
</svg>
