<?xml version="1.0" encoding="utf-8"?>
<!-- Generator: Adobe Illustrator 24.1.3, SVG Export Plug-In . SVG Version: 6.00 Build 0)  -->
<svg version="1.1" id="Layer_1" xmlns="http://www.w3.org/2000/svg" xmlns:xlink="http://www.w3.org/1999/xlink" x="0px" y="0px"
	 viewBox="0 0 100 100" style="enable-background:new 0 0 100 100;" xml:space="preserve">
<path d="M67.2,87.4V79c28.4-7.7,28.5-50.5,0-58.2v-8.4C106.5,20.3,106.3,79.2,67.2,87.4z M54.4,88.7
	c-3.3,0.1-7.9,0.4-9.7-3c-5.1-4-14.8-14.2-18.2-14.2h-13c-4.7,0-8.5-3.8-8.5-8.5V37c-0.2-11,14.5-8.3,21.4-8.5
	c3.4,0,13.1-10.2,18.2-14.2c1.8-3.4,6.4-3.1,9.7-3c3.5,0,6.4,0.8,6.4,4.3v68.8C60.8,87.9,57.9,88.7,54.4,88.7z M84.2,49.9
	c0,11.2-7.1,20.7-17.1,24.3v-9.3c11.3-5.9,11.3-24,0-29.9v-9.3C77,29.3,84.2,38.7,84.2,49.9z"/>
</svg>
