<?xml version="1.0" encoding="utf-8"?>
<!-- Generator: Adobe Illustrator 24.1.3, SVG Export Plug-In . SVG Version: 6.00 Build 0)  -->
<svg version="1.1" id="Layer_1" xmlns="http://www.w3.org/2000/svg" xmlns:xlink="http://www.w3.org/1999/xlink" x="0px" y="0px"
	 viewBox="0 0 100 100" style="enable-background:new 0 0 100 100;" xml:space="preserve">
<path d="M65.9,89.6v-8.9c13.2-4,22.9-16.2,22.9-30.7s-9.6-26.8-22.9-30.7v-8.9C84,14.4,97.5,30.6,97.5,49.9
	C97.5,69.2,84,85.4,65.9,89.6z M54.6,90.8h-4.5c-2.4,0-4.5-1.3-5.7-3.2c-5.4-4.2-15.6-15-19.2-15H11.5c-5,0-9-4-9-9V36.3
	c0-5,4-9,9-9h13.6c3.6,0,13.8-10.8,19.2-15c1.2-1.9,3.3-3.2,5.7-3.2h4.5c3.7,0,6.8,0.8,6.8,4.5v72.6C61.4,90,58.3,90.8,54.6,90.8z
	 M84,49.9c0,11.8-7.5,21.8-18,25.6v-9.8c5.4-3.2,9.1-9.1,9.1-15.8s-3.7-12.6-9.1-15.8v-9.8C76.4,28.1,84,38.1,84,49.9z"/>
</svg>
