<?xml version="1.0" encoding="utf-8"?>
<!-- Generator: Adobe Illustrator 24.1.3, SVG Export Plug-In . SVG Version: 6.00 Build 0)  -->
<svg version="1.1" id="Layer_1" xmlns="http://www.w3.org/2000/svg" xmlns:xlink="http://www.w3.org/1999/xlink" x="0px" y="0px"
	 viewBox="0 0 100 100" style="enable-background:new 0 0 100 100;" xml:space="preserve">
<path d="M50,0C22.4,0,0,22.4,0,50s22.4,50,50,50s50-22.4,50-50S77.6,0,50,0z M63,50c0,7.2-5.8,13-13,13c-1.9,0-3.7-0.4-5.4-1.2
	c-0.5-0.3-1.1-0.5-1.6-0.9c-0.5-0.3-1-0.6-1.4-1c-1.6-1.4-2.9-3.1-3.7-5.1C37.3,53.3,37,51.7,37,50c0-7.2,5.8-13,13-13
	c1.9,0,3.7,0.4,5.4,1.2c0.5,0.3,1.1,0.5,1.6,0.9c0.5,0.3,1,0.6,1.4,1c1.6,1.4,2.9,3.1,3.7,5.1C62.7,46.7,63,48.3,63,50z M39.1,63
	c0.6,0.5,1.2,0.9,1.8,1.3L25.4,88.8c-1.7-1.1-3.4-2.3-4.9-3.6L39.1,63z M60.9,37c-0.6-0.5-1.2-0.9-1.8-1.3l15.5-24.5
	c1.7,1.1,3.4,2.3,4.9,3.6L60.9,37z M50,4c6.8,0,13.2,1.5,19,4.1L57,34.5c-2.1-1-4.5-1.5-7-1.5c-9.4,0-17,7.6-17,17
	c0,2.2,0.4,4.4,1.2,6.3L7.3,67.1C5.2,61.8,4,56,4,50C4,24.6,24.6,4,50,4z M50,96c-6.8,0-13.2-1.5-19-4.1l12-26.4
	c2.1,1,4.5,1.5,7,1.5c9.4,0,17-7.6,17-17c0-2.2-0.4-4.4-1.2-6.3l26.9-10.8C94.8,38.2,96,44,96,50C96,75.4,75.4,96,50,96z"/>
<path d="M50,40c-5.5,0-10,4.5-10,10s4.5,10,10,10s10-4.5,10-10S55.5,40,50,40z M50,56c-3.3,0-6-2.7-6-6s2.7-6,6-6s6,2.7,6,6
	S53.3,56,50,56z"/>
</svg>
