<?xml version="1.0" encoding="utf-8"?>
<!-- Generator: Adobe Illustrator 24.1.3, SVG Export Plug-In . SVG Version: 6.00 Build 0)  -->
<svg version="1.1" id="Layer_1" xmlns="http://www.w3.org/2000/svg" xmlns:xlink="http://www.w3.org/1999/xlink" x="0px" y="0px"
	 viewBox="0 0 73 107" style="enable-background:new 0 0 73 107;" xml:space="preserve">
<path d="M21.5,75.6c0-3.3,2.7-5.9,5.9-5.9c3.3,0,5.9,2.6,5.9,5.9c0,3.3-2.6,5.9-5.9,5.9C24.1,81.5,21.5,78.9,21.5,75.6z M29.7,48.3
	c-1.5-0.1-3.1-0.1-4.6,0l-2.7,7.4c-2,0.5-3.8,1.3-5.5,2.3l-7.2-3.3c-1.2,1-2.2,2.1-3.2,3.2l3.3,7.1c-1,1.7-1.8,3.6-2.3,5.5l-7.4,2.7
	c-0.1,1.5-0.1,3.1,0,4.6l7.4,2.7c0.5,2,1.3,3.8,2.3,5.5l-3.3,7.2c1,1.2,2.1,2.3,3.2,3.2l7.1-3.3c1.7,1,3.6,1.8,5.5,2.3l2.7,7.4
	c1.5,0.1,3.1,0.1,4.6,0l2.7-7.4c2-0.5,3.8-1.3,5.5-2.3l7.2,3.3c1.2-1,2.3-2.1,3.2-3.2L45,86.2c1-1.7,1.8-3.6,2.3-5.5l7.4-2.7
	c0.1-1.5,0.1-3.1,0-4.6l-7.4-2.7c-0.5-2-1.3-3.8-2.3-5.5l3.3-7.2c-1-1.2-2.1-2.3-3.2-3.2L37.9,58c-1.7-1-3.6-1.8-5.5-2.3L29.7,48.3z
	"/>
<path d="M41.5,31.4c-1.3-3,0.2-6.5,3.2-7.7c3-1.3,6.5,0.2,7.7,3.2c1.3,3-0.2,6.5-3.2,7.7C46.2,35.8,42.7,34.4,41.5,31.4z M38.6,3
	c-1.5,0.5-2.9,1.1-4.2,1.8l0.3,7.9c-1.6,1.2-3.1,2.6-4.2,4.2l-7.9-0.3c-0.7,1.4-1.3,2.8-1.8,4.2l5.8,5.3c-0.3,2-0.3,4,0,6l-5.8,5.3
	c0.5,1.5,1.1,2.9,1.8,4.2l7.9-0.3c1.2,1.6,2.6,3.1,4.2,4.2l-0.3,7.9c1.4,0.7,2.8,1.3,4.2,1.8l5.3-5.8c2,0.3,4,0.3,6,0l5.3,5.8
	c1.5-0.5,2.9-1.1,4.2-1.8l-0.3-7.9c1.6-1.2,3.1-2.7,4.2-4.2l7.9,0.3c0.7-1.4,1.3-2.8,1.8-4.2l-5.8-5.3c0.3-2,0.3-4,0-6l5.8-5.3
	c-0.5-1.5-1.1-2.9-1.8-4.2l-7.9,0.3c-1.2-1.6-2.6-3.1-4.2-4.2l0.3-7.9c-1.4-0.7-2.8-1.3-4.2-1.7L50,8.8c-2-0.3-4-0.3-6,0L38.6,3z"/>
</svg>
