<?xml version="1.0" encoding="utf-8"?>
<!-- Generator: Adobe Illustrator 24.1.3, SVG Export Plug-In . SVG Version: 6.00 Build 0)  -->
<svg version="1.1" id="Layer_1" xmlns="http://www.w3.org/2000/svg" xmlns:xlink="http://www.w3.org/1999/xlink" x="0px" y="0px"
	 viewBox="0 0 95.5 102.3" style="enable-background:new 0 0 95.5 102.3;" xml:space="preserve">
<path d="M3.3,43.5c-0.2,1.6-3.2,4.1-3.3,5.7c-0.2,3,3.9,8.9,6.7,10c4.4,1.8,26.9,1,26.9,1c2.2,3.8-3.9,13.3-5.6,17.4
	c-2.5,6-2.1,14,1.1,18c3.8,5,10.8,5.3,10.9,3.1c1-16.2,4.1-20.7,8.3-23.9c2.5-1.9,4.7-3.6,5.8-6.5C61.2,50.2,66.5,46,69.5,46h2V5
	l-21-3.9c0,0-26.1-2.5-34.3,0c-2.6,0.8-7,4.7-8.1,7.1C7.5,9.7,8.3,13,7.6,14.4c-1,2-5.5,4.6-5.5,7.4c0,2,2.3,5.4,2.1,7.4
	c-0.2,2-4.3,4.7-4.3,6.7C0,37.9,3.6,41.4,3.3,43.5z"/>
<path d="M75.5,6c0-2.2,1.8-4,4-4h12c2.2,0,4,1.8,4,4v38c0,2.2-1.8,4-4,4h-12c-2.2,0-4-1.8-4-4V6z"/>
</svg>
