<?xml version="1.0" encoding="utf-8"?>
<!-- Generator: Adobe Illustrator 24.1.3, SVG Export Plug-In . SVG Version: 6.00 Build 0)  -->
<svg version="1.1" id="Layer_1" xmlns="http://www.w3.org/2000/svg" xmlns:xlink="http://www.w3.org/1999/xlink" x="0px" y="0px"
	 viewBox="0 0 34 33.9" style="enable-background:new 0 0 34 33.9;" xml:space="preserve">
<g>
	<path d="M17,26.5c6,0,11.5-3.1,15.7-8.6l0.7-0.9l-0.7-0.9C28.5,10.6,23,7.5,17,7.5c-6,0-11.5,3.1-15.7,8.6L0.6,17l0.7,0.9
		C5.5,23.4,11.1,26.5,17,26.5z M17,10.5c4.7,0,9.1,2.3,12.6,6.5c-3.5,4.2-7.9,6.5-12.6,6.5c-4.7,0-9.1-2.3-12.6-6.5
		C7.9,12.8,12.3,10.5,17,10.5z"/>
	<path d="M17,22.5c3,0,5.5-2.5,5.5-5.5c0-1.9-0.8-3.1-2.1-4.3h-0.1c-1-0.8-2.1-1.2-3.4-1.2c-3,0-5.5,2.5-5.5,5.5S14,22.5,17,22.5z
		 M17,14.5c1.4,0,2.5,1.1,2.5,2.5c0,1.4-1.1,2.5-2.5,2.5s-2.5-1.1-2.5-2.5S15.6,14.5,17,14.5z"/>
	<path d="M3,9.5c0.8,0,1.5-0.7,1.5-1.5V4.5H8c0.8,0,1.5-0.7,1.5-1.5S8.8,1.5,8,1.5H3C2.2,1.5,1.5,2.2,1.5,3v5C1.5,8.8,2.2,9.5,3,9.5
		z"/>
	<path d="M26,4.5h3.5V8c0,0.8,0.7,1.5,1.5,1.5s1.5-0.7,1.5-1.5V3c0-0.8-0.7-1.5-1.5-1.5h-5c-0.8,0-1.5,0.7-1.5,1.5
		C24.5,3.8,25.2,4.5,26,4.5z"/>
	<path d="M3,24.5c-0.8,0-1.5,0.7-1.5,1.5v5c0,0.8,0.7,1.5,1.5,1.5h5c0.8,0,1.5-0.7,1.5-1.5S8.8,29.5,8,29.5H4.5V26
		C4.5,25.2,3.8,24.5,3,24.5z"/>
	<path d="M26,32.5h5c0.8,0,1.5-0.7,1.5-1.5v-5c0-0.8-0.7-1.5-1.5-1.5s-1.5,0.7-1.5,1.5v3.5H26c-0.8,0-1.5,0.7-1.5,1.5
		S25.2,32.5,26,32.5z"/>
</g>
</svg>
