<svg xmlns="http://www.w3.org/2000/svg" xmlns:xlink="http://www.w3.org/1999/xlink" version="1.1" x="0px" y="0px" viewBox="0 0 100 125" enable-background="new 0 0 100 100" xml:space="preserve"><g><path d="M46.5,25c0,1,0,2,0,3v2.7c0,2.2,1.6,3.1,3.5,2l5.4-3.1c1.9-1.1,5-2.9,6.9-4l5.4-3.1c1.9-1.1,1.9-2.9,0-4l-5.4-3.1   c-1.9-1.1-5-2.9-6.9-4l-5.4-3c-1.9-1.1-3.5-0.3-3.5,1.8c0,1.4,0,3.2,0,4.8C27.9,15.8,13,31.2,13,50c0,9.2,3.6,17.6,9.4,23.9   l7.1-7.1C25.5,62.4,23,56.5,23,50C23,36.7,33.4,25.8,46.5,25z"/><path d="M77.1,25.7L70,32.8c4,4.4,6.5,10.3,6.5,16.8c0,13-9.9,23.6-22.5,24.9c0-0.7,0-1.8,0-3v-2.6c0-2.2-1.6-3.1-3.5-2L45.1,70   c-1.9,1.1-5,2.9-6.9,4l-5.4,3c-1.9,1.1-1.9,2.9,0,4l5.4,3.1c1.9,1.1,5,2.9,6.9,4l5.4,3.1c1.9,1.1,3.5,0.3,3.5-1.8   c0-2.1,0-3.9,0-3.9s0-0.4,0-1c18.2-1.3,32.5-16.4,32.5-34.9C86.5,40.4,82.9,32,77.1,25.7z"/></g><text x="0" y="115" fill="#000000" font-size="5px" font-weight="bold" font-family="'Helvetica Neue', Helvetica, Arial-Unicode, Arial, Sans-serif">Created by Nimal Raj</text><text x="0" y="120" fill="#000000" font-size="5px" font-weight="bold" font-family="'Helvetica Neue', Helvetica, Arial-Unicode, Arial, Sans-serif">from the Noun Project</text></svg>