<?xml version="1.0" encoding="utf-8"?>
<!-- Generator: Adobe Illustrator 14.0.0, SVG Export Plug-In . SVG Version: 6.00 Build 43363)  -->
<!DOCTYPE svg PUBLIC "-//W3C//DTD SVG 1.0//EN" "http://www.w3.org/TR/2001/REC-SVG-20010904/DTD/svg10.dtd">
<svg version="1.0" id="Layer_1" xmlns="http://www.w3.org/2000/svg" xmlns:xlink="http://www.w3.org/1999/xlink" x="0px" y="0px"
	 width="98.372px" height="100px" viewBox="0 0 98.372 100" enable-background="new 0 0 98.372 100" xml:space="preserve">
<path d="M58.988,38.462v0.921h39.384V0L83.185,15.185c-8.841-8.44-20.8-13.64-33.958-13.64C22.083,1.545,0,23.628,0,50.771
	C0,77.917,22.083,100,49.227,100c13.574,0,25.879-5.521,34.792-14.435l-9.463-9.465c-6.489,6.49-15.449,10.508-25.33,10.508
	c-19.76,0-35.836-16.075-35.836-35.837c0-19.759,16.076-35.836,35.836-35.836c9.467,0,18.083,3.698,24.497,9.715L59.449,38.923
	L58.988,38.462z"/>
</svg>
