<svg xmlns="http://www.w3.org/2000/svg" xmlns:xlink="http://www.w3.org/1999/xlink" version="1.1" x="0px" y="0px" viewBox="0 0 34 42.5" enable-background="new 0 0 34 34" xml:space="preserve"><g><path d="M17.006,26.497c5.958,0,11.531-3.054,15.693-8.6l0.677-0.9l-0.677-0.9c-4.159-5.541-9.738-8.592-15.709-8.592   c-5.961,0-11.532,3.052-15.691,8.592l-0.677,0.903l0.68,0.9C5.483,23.443,11.06,26.497,17.006,26.497z M16.991,10.504   c4.679,0,9.116,2.296,12.6,6.493c-3.484,4.201-7.917,6.5-12.584,6.5c-4.659,0-9.095-2.299-12.595-6.502   C7.892,12.799,12.322,10.504,16.991,10.504z"/><path d="M17,22.5c3.032,0,5.5-2.467,5.5-5.5c0-1.938-0.835-3.123-2.054-4.324h-0.056C19.425,11.914,18.243,11.5,17,11.5   c-3.032,0-5.5,2.467-5.5,5.5S13.968,22.5,17,22.5z M17,14.5c1.35,0,2.5,1.091,2.5,2.5c0,1.378-1.121,2.5-2.5,2.5   c-1.379,0-2.5-1.122-2.5-2.5C14.5,15.622,15.622,14.5,17,14.5z"/><path d="M2.999,9.5c0.828,0,1.5-0.671,1.5-1.5V4.5h3.504c0.828,0,1.5-0.671,1.5-1.5c0-0.829-0.672-1.5-1.5-1.5H2.999   c-0.828,0-1.5,0.671-1.5,1.5v5C1.499,8.829,2.17,9.5,2.999,9.5z"/><path d="M25.999,4.5h3.504V8c0,0.829,0.672,1.5,1.5,1.5c0.828,0,1.5-0.671,1.5-1.5V3c0-0.829-0.672-1.5-1.5-1.5h-5.004   c-0.828,0-1.5,0.671-1.5,1.5C24.499,3.829,25.17,4.5,25.999,4.5z"/><path d="M2.999,24.5c-0.828,0-1.5,0.671-1.5,1.5v5c0,0.829,0.672,1.5,1.5,1.5h5.004c0.828,0,1.5-0.671,1.5-1.5s-0.672-1.5-1.5-1.5   H4.499V26C4.499,25.171,3.827,24.5,2.999,24.5z"/><path d="M25.999,32.5h5.004c0.828,0,1.5-0.671,1.5-1.5v-5c0-0.829-0.672-1.5-1.5-1.5c-0.828,0-1.5,0.671-1.5,1.5v3.5h-3.504   c-0.828,0-1.5,0.671-1.5,1.5S25.17,32.5,25.999,32.5z"/></g><text x="0" y="49" fill="#000000" font-size="5px" font-weight="bold" font-family="'Helvetica Neue', Helvetica, Arial-Unicode, Arial, Sans-serif">Created by ProSymbols</text><text x="0" y="54" fill="#000000" font-size="5px" font-weight="bold" font-family="'Helvetica Neue', Helvetica, Arial-Unicode, Arial, Sans-serif">from the Noun Project</text></svg>