<?xml version="1.0" encoding="utf-8"?>
<!-- Generator: Adobe Illustrator 14.0.0, SVG Export Plug-In . SVG Version: 6.00 Build 43363)  -->
<!DOCTYPE svg PUBLIC "-//W3C//DTD SVG 1.0//EN" "http://www.w3.org/TR/2001/REC-SVG-20010904/DTD/svg10.dtd">
<svg version="1.0" id="Layer_1" xmlns="http://www.w3.org/2000/svg" xmlns:xlink="http://www.w3.org/1999/xlink" x="0px" y="0px"
	 width="100px" height="99.988px" viewBox="0 0 100 99.988" enable-background="new 0 0 100 99.988" xml:space="preserve">
<path d="M61.912,76.213c-10.179,0-19.749-3.964-26.945-11.162c-7.197-7.197-11.162-16.767-11.162-26.945s3.965-19.748,11.162-26.945
	C42.162,3.963,51.731,0,61.911,0C72.09,0,81.659,3.963,88.856,11.162c14.857,14.855,14.857,39.031,0.001,53.889
	C81.66,72.25,72.091,76.213,61.912,76.213L61.912,76.213z M61.911,6.57c-8.424,0-16.344,3.279-22.299,9.235
	c-12.297,12.297-12.297,32.305,0,44.602c5.957,5.955,13.875,9.235,22.3,9.235c8.424,0,16.344-3.28,22.3-9.235
	c5.956-5.958,9.237-13.878,9.237-22.302s-3.281-16.342-9.238-22.3C78.254,9.851,70.334,6.57,61.911,6.57L61.911,6.57z"/>
<polygon points="7.742,99.988 0,92.248 27.928,64.319 35.67,72.06 7.742,99.988 "/>
</svg>
