<?xml version="1.0" encoding="utf-8"?><!DOCTYPE svg PUBLIC "-//W3C//DTD SVG 1.1//EN" "http://www.w3.org/Graphics/SVG/1.1/DTD/svg11.dtd"><svg version="1.1" xmlns="http://www.w3.org/2000/svg" xmlns:xlink="http://www.w3.org/1999/xlink" x="0px" y="0px" viewBox="0 0 100 125" enable-background="new 0 0 100 100" xml:space="preserve"><path d="M50,0C22.43,0,0,22.43,0,50s22.43,50,50,50s50-22.43,50-50S77.57,0,50,0z M63,50c0,7.168-5.832,13-13,13
	c-1.918,0-3.733-0.428-5.374-1.177c-0.548-0.251-1.075-0.537-1.579-0.858c-0.484-0.308-0.951-0.641-1.389-1.008
	c-1.63-1.368-2.915-3.128-3.72-5.133C37.339,53.331,37,51.705,37,50c0-7.168,5.832-13,13-13c1.918,0,3.733,0.428,5.374,1.177
	c0.548,0.251,1.075,0.537,1.579,0.858c0.484,0.308,0.951,0.641,1.389,1.008c1.63,1.368,2.915,3.128,3.72,5.133
	C62.661,46.669,63,48.295,63,50z M39.091,63.021c0.573,0.481,1.183,0.916,1.816,1.318L25.379,88.826
	c-1.714-1.091-3.354-2.286-4.903-3.587L39.091,63.021z M60.909,36.979c-0.573-0.481-1.183-0.916-1.816-1.318l15.528-24.487
	c1.714,1.091,3.354,2.286,4.903,3.587L60.909,36.979z M50,4c6.785,0,13.225,1.488,19.028,4.137L57.027,34.539
	C54.883,33.561,52.508,33,50,33c-9.374,0-17,7.626-17,17c0,2.23,0.443,4.355,1.228,6.309L7.301,67.079C5.18,61.795,4,56.034,4,50
	C4,24.636,24.636,4,50,4z M50,96c-6.785,0-13.225-1.488-19.028-4.137l12.001-26.402C45.117,66.439,47.492,67,50,67
	c9.374,0,17-7.626,17-17c0-2.23-0.443-4.355-1.228-6.309l26.927-10.771C94.82,38.205,96,43.966,96,50C96,75.364,75.364,96,50,96z"/><path d="M50,40c-5.514,0-10,4.486-10,10s4.486,10,10,10s10-4.486,10-10S55.514,40,50,40z M50,56c-3.309,0-6-2.691-6-6s2.691-6,6-6
	s6,2.691,6,6S53.309,56,50,56z"/><text x="0" y="115" fill="#000000" font-size="5px" font-weight="bold" font-family="'Helvetica Neue', Helvetica, Arial-Unicode, Arial, Sans-serif">Created by Edward Boatman</text><text x="0" y="120" fill="#000000" font-size="5px" font-weight="bold" font-family="'Helvetica Neue', Helvetica, Arial-Unicode, Arial, Sans-serif">from the Noun Project</text></svg>