<svg xmlns:dc="http://purl.org/dc/elements/1.1/" xmlns:cc="http://creativecommons.org/ns#" xmlns:rdf="http://www.w3.org/1999/02/22-rdf-syntax-ns#" xmlns:svg="http://www.w3.org/2000/svg" xmlns="http://www.w3.org/2000/svg" xmlns:sodipodi="http://sodipodi.sourceforge.net/DTD/sodipodi-0.dtd" xmlns:inkscape="http://www.inkscape.org/namespaces/inkscape" version="1.1" x="0px" y="0px" viewBox="0 0 100 125"><g transform="translate(0,-952.36218)"><g transform="translate(-271.50002,-1693.0001)"><path style="color:#000000;enable-background:accumulate;" d="m -934.25004,2739.3623 c 0,13.1167 -10.63322,23.75 -23.74996,23.75 -13.11674,0 -23.74996,-10.6333 -23.74996,-23.75 0,-13.1167 10.63322,-23.75 23.74996,-23.75 13.11674,0 23.74996,10.6333 23.74996,23.75 z" transform="matrix(1.0526333,0,0,1.0526333,1333.4227,-188.18168)" fill="none" stroke="#060000" stroke-width="5.69999075" stroke-linecap="butt" stroke-linejoin="round" stroke-miterlimit="4" stroke-opacity="1" stroke-dasharray="none" stroke-dashoffset="0" marker="none" visibility="visible" display="inline" overflow="visible"/><circle transform="matrix(5,0,0,5,-2531.6064,-305.57306)" d="m 568.32129,600.18707 c 0,1.10457 -0.89543,2 -2,2 -1.10457,0 -2,-0.89543 -2,-2 0,-1.10457 0.89543,-2 2,-2 1.10457,0 2,0.89543 2,2 z" r="2" cy="600.18707" cx="566.32129" style="color:#000000;enable-background:accumulate;" fill="#000000" stroke="none" marker="none" visibility="visible" display="inline" overflow="visible"/><circle style="color:#000000;enable-background:accumulate;" cx="566.32129" cy="600.18707" r="2" d="m 568.32129,600.18707 c 0,1.10457 -0.89543,2 -2,2 -1.10457,0 -2,-0.89543 -2,-2 0,-1.10457 0.89543,-2 2,-2 1.10457,0 2,0.89543 2,2 z" transform="matrix(5,0,0,5,-2492.6064,-326.57306)" fill="#000000" stroke="none" marker="none" visibility="visible" display="inline" overflow="visible"/><circle style="color:#000000;enable-background:accumulate;" cx="566.32129" cy="600.18707" r="2" d="m 568.32129,600.18707 c 0,1.10457 -0.89543,2 -2,2 -1.10457,0 -2,-0.89543 -2,-2 0,-1.10457 0.89543,-2 2,-2 1.10457,0 2,0.89543 2,2 z" transform="matrix(5,0,0,5,-2492.6064,-284.57306)" fill="#000000" stroke="none" marker="none" visibility="visible" display="inline" overflow="visible"/></g></g><text x="0" y="115" fill="#000000" font-size="5px" font-weight="bold" font-family="'Helvetica Neue', Helvetica, Arial-Unicode, Arial, Sans-serif">Created by zidney</text><text x="0" y="120" fill="#000000" font-size="5px" font-weight="bold" font-family="'Helvetica Neue', Helvetica, Arial-Unicode, Arial, Sans-serif">from the Noun Project</text></svg>