<?xml version="1.0" encoding="UTF-8" standalone="no"?>
<!-- Generator: Adobe Illustrator 14.0.0, SVG Export Plug-In . SVG Version: 6.00 Build 43363)  -->

<svg
   xmlns:dc="http://purl.org/dc/elements/1.1/"
   xmlns:cc="http://creativecommons.org/ns#"
   xmlns:rdf="http://www.w3.org/1999/02/22-rdf-syntax-ns#"
   xmlns:svg="http://www.w3.org/2000/svg"
   xmlns="http://www.w3.org/2000/svg"
   xmlns:sodipodi="http://sodipodi.sourceforge.net/DTD/sodipodi-0.dtd"
   xmlns:inkscape="http://www.inkscape.org/namespaces/inkscape"
   version="1.0"
   id="Layer_1"
   x="0px"
   y="0px"
   width="98.372px"
   height="100px"
   viewBox="0 0 98.372 100"
   enable-background="new 0 0 98.372 100"
   xml:space="preserve"
   inkscape:version="0.48.0 r9654"
   sodipodi:docname="noun_project_167.svg"><metadata
   id="metadata3001"><rdf:RDF><cc:Work
       rdf:about=""><dc:format>image/svg+xml</dc:format><dc:type
         rdf:resource="http://purl.org/dc/dcmitype/StillImage" /><dc:title></dc:title></cc:Work></rdf:RDF></metadata><defs
   id="defs2999" /><sodipodi:namedview
   pagecolor="#ffffff"
   bordercolor="#666666"
   borderopacity="1"
   objecttolerance="10"
   gridtolerance="10"
   guidetolerance="10"
   inkscape:pageopacity="0"
   inkscape:pageshadow="2"
   inkscape:window-width="687"
   inkscape:window-height="537"
   id="namedview2997"
   showgrid="false"
   inkscape:zoom="2.91"
   inkscape:cx="49.186001"
   inkscape:cy="50"
   inkscape:window-x="1373"
   inkscape:window-y="259"
   inkscape:window-maximized="0"
   inkscape:current-layer="Layer_1" />
<path
   d="m 39.384,38.462 v 0.921 H 0 V 0 l 15.187,15.185 c 8.841,-8.44 20.8,-13.64 33.958,-13.64 27.144,0 49.227,22.083 49.227,49.226 C 98.372,77.917 76.289,100 49.145,100 35.571,100 23.266,94.479 14.353,85.565 L 23.816,76.1 c 6.489,6.49 15.449,10.508 25.33,10.508 19.76,0 35.836,-16.075 35.836,-35.837 0,-19.759 -16.076,-35.836 -35.836,-35.836 -9.467,0 -18.083,3.698 -24.497,9.715 l 14.274,14.273 0.461,-0.461 z"
   id="path2995"
   inkscape:connector-curvature="0" />
</svg>