<?xml version="1.0" encoding="utf-8"?>
<!-- Generator: Adobe Illustrator 24.1.3, SVG Export Plug-In . SVG Version: 6.00 Build 0)  -->
<svg version="1.1" id="Layer_1" xmlns="http://www.w3.org/2000/svg" xmlns:xlink="http://www.w3.org/1999/xlink" x="0px" y="0px"
	 viewBox="0 0 100 101.4" style="enable-background:new 0 0 100 101.4;" xml:space="preserve">
<path d="M4.7,4.7c-6.3,6.3-6.3,16.6,0,22.9L27.6,4.7C21.3-1.6,11.1-1.6,4.7,4.7z"/>
<path d="M60.9,83.8L100,100L83.8,60.9L33.9,11L11,33.9L60.9,83.8z M66.1,73.6c2.1-2.1,6-1.5,6.9-0.6c-0.9-0.9-1.4-4.8,0.6-6.9
	s6.2-2.8,6.2-2.8l9.3,22.5l-3.4,3.4l-22.5-9.3C63.3,79.9,64,75.7,66.1,73.6z"/>
</svg>
