<?xml version="1.0" encoding="utf-8"?>
<!-- Generator: Adobe Illustrator 24.1.3, SVG Export Plug-In . SVG Version: 6.00 Build 0)  -->
<svg version="1.1" id="Layer_1" xmlns="http://www.w3.org/2000/svg" xmlns:xlink="http://www.w3.org/1999/xlink" x="0px" y="0px"
	 viewBox="0 0 100 125" style="enable-background:new 0 0 100 125;" xml:space="preserve">
<g>
	<path d="M45.9,30.3c0,1.3,0,2.5,0,3.8v3.4c0,2.8,2,3.9,4.4,2.5L57,36c2.4-1.4,6.3-3.6,8.6-5l6.8-3.9c2.4-1.4,2.4-3.6,0-5l-6.8-3.9
		c-2.4-1.4-6.3-3.6-8.6-5l-6.8-3.8c-2.4-1.4-4.4-0.4-4.4,2.3c0,1.8,0,4,0,6C22.6,18.8,4,38,4,61.5c0,11.5,4.5,22,11.8,29.9l8.9-8.9
		c-5-5.5-8.1-12.9-8.1-21C16.5,44.9,29.5,31.3,45.9,30.3z"/>
	<path d="M84.2,31.2L75.3,40c5,5.5,8.1,12.9,8.1,21c0,16.3-12.4,29.5-28.1,31.1c0-0.9,0-2.3,0-3.8v-3.3c0-2.8-2-3.9-4.4-2.5
		l-6.8,3.9c-2.4,1.4-6.3,3.6-8.6,5l-6.8,3.8c-2.4,1.4-2.4,3.6,0,5l6.8,3.9c2.4,1.4,6.3,3.6,8.6,5l6.8,3.9c2.4,1.4,4.4,0.4,4.4-2.3
		c0-2.6,0-4.9,0-4.9s0-0.5,0-1.3C78,103.1,95.9,84.2,95.9,61C95.9,49.5,91.4,39,84.2,31.2z"/>
</g>
</svg>
